<svg xmlns="http://www.w3.org/2000/svg" viewBox="0 0 450 450"><defs><style>.cls-1{fill:#09191c;}</style></defs><g id="Logos"><rect class="cls-1" x="111.74" y="132.73" width="29.73" height="184.09" rx="2.71"/><path class="cls-1" d="M138.76,132.87a2.57,2.57,0,0,1,2.56,2.57V314.12a2.56,2.56,0,0,1-2.56,2.56H114.45a2.57,2.57,0,0,1-2.57-2.56V135.44a2.58,2.58,0,0,1,2.57-2.57h24.31m0-.28H114.45a2.85,2.85,0,0,0-2.85,2.85V314.12a2.85,2.85,0,0,0,2.85,2.85h24.31a2.86,2.86,0,0,0,2.85-2.85V135.44a2.86,2.86,0,0,0-2.85-2.85Z"/><rect class="cls-1" x="152.2" y="132.73" width="29.73" height="184.09" rx="2.71"/><path class="cls-1" d="M179.21,132.87a2.58,2.58,0,0,1,2.57,2.57V314.12a2.57,2.57,0,0,1-2.57,2.56h-24.3a2.57,2.57,0,0,1-2.57-2.56V135.44a2.58,2.58,0,0,1,2.57-2.57h24.3m0-.28h-24.3a2.85,2.85,0,0,0-2.85,2.85V314.12a2.85,2.85,0,0,0,2.85,2.85h24.3a2.86,2.86,0,0,0,2.86-2.85V135.44a2.86,2.86,0,0,0-2.86-2.85Z"/><rect class="cls-1" x="270.54" y="132.73" width="29.73" height="184.09" rx="2.71"/><path class="cls-1" d="M297.56,132.87a2.58,2.58,0,0,1,2.57,2.57V314.12a2.57,2.57,0,0,1-2.57,2.56H273.25a2.56,2.56,0,0,1-2.56-2.56V135.44a2.57,2.57,0,0,1,2.56-2.57h24.31m0-.28H273.25a2.86,2.86,0,0,0-2.85,2.85V314.12a2.86,2.86,0,0,0,2.85,2.85h24.31a2.85,2.85,0,0,0,2.85-2.85V135.44a2.85,2.85,0,0,0-2.85-2.85Z"/><rect class="cls-1" x="193.36" y="209.92" width="184.09" height="29.73" rx="2.71"/><path class="cls-1" d="M374.75,210.06a2.57,2.57,0,0,1,2.56,2.57v24.3a2.57,2.57,0,0,1-2.56,2.57H196.07a2.57,2.57,0,0,1-2.57-2.57v-24.3a2.57,2.57,0,0,1,2.57-2.57H374.75m0-.29H196.07a2.85,2.85,0,0,0-2.85,2.86v24.3a2.84,2.84,0,0,0,2.85,2.85H374.75a2.85,2.85,0,0,0,2.85-2.85v-24.3a2.86,2.86,0,0,0-2.85-2.86Z"/></g></svg>