<svg xmlns="http://www.w3.org/2000/svg" viewBox="0 0 450 450"><defs><style>.cls-1{fill:#fffdf5;}</style></defs><g id="Logos"><path class="cls-1" d="M80.68,249.13A1.09,1.09,0,0,1,79.53,248V206.58H65.94a1.09,1.09,0,0,1-1.16-1.15v-6.61a1.09,1.09,0,0,1,1.16-1.15h37.24a1.09,1.09,0,0,1,1.15,1.15v6.61a1.09,1.09,0,0,1-1.15,1.15H89.59V248a1.09,1.09,0,0,1-1.15,1.16Z"/><path class="cls-1" d="M155.2,197.67c.85,0,1,.54.92,1.31l-5.79,49.23c-.08.61-.85.92-1.46.92h-8.76a1.19,1.19,0,0,1-1.3-.92l-3.73-25.31-3.72,25.31a1.21,1.21,0,0,1-1.31.92H121.3c-.62,0-1.39-.31-1.46-.92L114,199c-.08-.77.08-1.31.92-1.31h7c.62,0,1.23.23,1.31.92L126.67,236l5.19-32.83a1.15,1.15,0,0,1,1.3-.92H137a1.16,1.16,0,0,1,1.31.92L143.49,236,147,198.59c.07-.69.69-.92,1.3-.92Z"/><path class="cls-1" d="M165.48,223.59c0-19,5.83-26.69,19.47-26.69s19.46,7.72,19.46,26.69-5.83,26.69-19.46,26.69S165.48,242.52,165.48,223.59Zm29.22,0c0-14-3.73-17.09-9.75-17.09s-9.76,3.11-9.76,17.09,3.73,17.09,9.76,17.09S194.7,237.57,194.7,223.59Z"/><path class="cls-1" d="M233.72,197.67c13.24,0,18.7,6.42,18.7,17.28s-5.46,17.28-18.7,17.28h-9.1V248a1.09,1.09,0,0,1-1.15,1.16h-7.72a1.1,1.1,0,0,1-1.16-1.16V198.82a1.09,1.09,0,0,1,1.16-1.15Zm-.54,25.65c6.11,0,9.6-2,9.6-8.37s-3.49-8.37-9.6-8.37h-8.56v16.74Z"/><path class="cls-1" d="M261.79,249.13a1.09,1.09,0,0,1-1.15-1.16V198.82a1.09,1.09,0,0,1,1.15-1.15h7.72a1.09,1.09,0,0,1,1.15,1.15v41.4h24a1.09,1.09,0,0,1,1.15,1.15V248a1.09,1.09,0,0,1-1.15,1.16Z"/><path class="cls-1" d="M301.57,231.69V198.82a1.09,1.09,0,0,1,1.15-1.15h7.72a1.09,1.09,0,0,1,1.15,1.15v32.07c0,6.18,2.84,9.79,8.68,9.79s8.68-3.61,8.68-9.79V198.82a1.09,1.09,0,0,1,1.15-1.15h7.72a1.09,1.09,0,0,1,1.15,1.15v32.87c0,12.48-6.68,18.59-18.7,18.59S301.57,244.17,301.57,231.69Z"/><path class="cls-1" d="M345.87,235.11a1.12,1.12,0,0,1,1.08-1.34h7.18c.69,0,1,.5,1.11,1.11.77,4.26,4.27,6.53,10.14,6.53,5.3,0,9.52-1.73,9.52-6.64,0-3.65-2.3-5.8-10.48-7.53-8.91-1.88-17.43-5.53-17.43-15.86,0-8.56,5.95-14.48,18.47-14.48,10.48,0,16.89,4.19,17.85,14.4a1.08,1.08,0,0,1-1.07,1.31h-6.65c-.69,0-1-.46-1.11-1.08-.69-3.68-3.76-5.76-9.25-5.76s-8.49,2.12-8.49,6c0,3.15,2,5.56,10.18,7.33,9.17,2,17.81,4.53,17.81,15.86,0,9.91-6.87,15.36-19.73,15.36C353.75,250.28,346.68,246,345.87,235.11Z"/></g></svg>