<svg xmlns="http://www.w3.org/2000/svg" viewBox="0 0 450 450"><defs><style>.cls-1{fill:#fffdf5;}</style></defs><g id="Logos"><rect class="cls-1" x="111.9" y="131.38" width="29.73" height="184.09" rx="2.71"/><path class="cls-1" d="M138.92,131.52a2.58,2.58,0,0,1,2.57,2.57V312.77a2.57,2.57,0,0,1-2.57,2.56H114.61a2.57,2.57,0,0,1-2.57-2.56V134.09a2.58,2.58,0,0,1,2.57-2.57h24.31m0-.28H114.61a2.85,2.85,0,0,0-2.85,2.85V312.77a2.86,2.86,0,0,0,2.85,2.85h24.31a2.86,2.86,0,0,0,2.85-2.85V134.09a2.85,2.85,0,0,0-2.85-2.85Z"/><rect class="cls-1" x="152.36" y="131.38" width="29.73" height="184.09" rx="2.71"/><path class="cls-1" d="M179.38,131.52a2.57,2.57,0,0,1,2.56,2.57V312.77a2.56,2.56,0,0,1-2.56,2.56H155.07a2.57,2.57,0,0,1-2.57-2.56V134.09a2.57,2.57,0,0,1,2.57-2.57h24.31m0-.28H155.07a2.84,2.84,0,0,0-2.85,2.85V312.77a2.85,2.85,0,0,0,2.85,2.85h24.31a2.86,2.86,0,0,0,2.85-2.85V134.09a2.85,2.85,0,0,0-2.85-2.85Z"/><rect class="cls-1" x="270.71" y="131.38" width="29.73" height="184.09" rx="2.71"/><path class="cls-1" d="M297.72,131.52a2.57,2.57,0,0,1,2.57,2.57V312.77a2.57,2.57,0,0,1-2.57,2.56h-24.3a2.57,2.57,0,0,1-2.57-2.56V134.09a2.57,2.57,0,0,1,2.57-2.57h24.3m0-.28h-24.3a2.85,2.85,0,0,0-2.86,2.85V312.77a2.86,2.86,0,0,0,2.86,2.85h24.3a2.86,2.86,0,0,0,2.86-2.85V134.09a2.85,2.85,0,0,0-2.86-2.85Z"/><rect class="cls-1" x="193.52" y="208.56" width="184.09" height="29.73" rx="2.71"/><path class="cls-1" d="M374.91,208.71a2.56,2.56,0,0,1,2.56,2.56v24.31a2.57,2.57,0,0,1-2.56,2.57H196.23a2.58,2.58,0,0,1-2.57-2.57V211.27a2.57,2.57,0,0,1,2.57-2.56H374.91m0-.29H196.23a2.86,2.86,0,0,0-2.85,2.85v24.31a2.85,2.85,0,0,0,2.85,2.85H374.91a2.85,2.85,0,0,0,2.85-2.85V211.27a2.86,2.86,0,0,0-2.85-2.85Z"/></g></svg>