<svg xmlns="http://www.w3.org/2000/svg" viewBox="0 0 450 450"><defs><style>.cls-1{fill:#09191c;}</style></defs><g id="Logos"><path class="cls-1" d="M80.52,250.48a1.09,1.09,0,0,1-1.15-1.15v-41.4H65.77a1.09,1.09,0,0,1-1.15-1.15v-6.6A1.09,1.09,0,0,1,65.77,199H103a1.09,1.09,0,0,1,1.15,1.16v6.6a1.09,1.09,0,0,1-1.15,1.15H89.43v41.4a1.09,1.09,0,0,1-1.15,1.15Z"/><path class="cls-1" d="M155,199c.85,0,1,.54.92,1.31l-5.8,49.23c-.07.61-.84.92-1.46.92H140a1.21,1.21,0,0,1-1.31-.92l-3.72-25.31-3.72,25.31a1.21,1.21,0,0,1-1.31.92h-8.76c-.61,0-1.38-.31-1.45-.92l-5.8-49.23c-.08-.77.07-1.31.92-1.31h7c.61,0,1.23.23,1.3.93l3.46,37.43,5.18-32.83a1.17,1.17,0,0,1,1.31-.92h3.84a1.17,1.17,0,0,1,1.31.92l5.18,32.83L146.78,200c.08-.7.7-.93,1.31-.93Z"/><path class="cls-1" d="M165.32,224.94c0-19,5.83-26.68,19.46-26.68s19.47,7.71,19.47,26.68-5.83,26.69-19.47,26.69S165.32,243.87,165.32,224.94Zm29.22,0c0-14-3.73-17.08-9.76-17.08S175,211,175,224.94,178.76,242,184.78,242,194.54,238.92,194.54,224.94Z"/><path class="cls-1" d="M233.56,199c13.24,0,18.7,6.42,18.7,17.28s-5.46,17.28-18.7,17.28h-9.1v15.75a1.09,1.09,0,0,1-1.16,1.15h-7.71a1.09,1.09,0,0,1-1.16-1.15V200.18a1.09,1.09,0,0,1,1.16-1.16ZM233,224.67c6.1,0,9.6-2,9.6-8.37s-3.5-8.37-9.6-8.37h-8.56v16.74Z"/><path class="cls-1" d="M261.63,250.48a1.09,1.09,0,0,1-1.15-1.15V200.18a1.09,1.09,0,0,1,1.15-1.16h7.72a1.09,1.09,0,0,1,1.15,1.16v41.39h24a1.09,1.09,0,0,1,1.15,1.15v6.61a1.09,1.09,0,0,1-1.15,1.15Z"/><path class="cls-1" d="M301.41,233.05V200.18a1.09,1.09,0,0,1,1.15-1.16h7.72a1.09,1.09,0,0,1,1.15,1.16v32.06c0,6.18,2.84,9.79,8.68,9.79s8.67-3.61,8.67-9.79V200.18a1.1,1.1,0,0,1,1.16-1.16h7.71a1.09,1.09,0,0,1,1.16,1.16v32.87c0,12.47-6.68,18.58-18.7,18.58S301.41,245.52,301.41,233.05Z"/><path class="cls-1" d="M345.71,236.46a1.11,1.11,0,0,1,1.08-1.34H354c.69,0,1,.5,1.11,1.11.77,4.26,4.26,6.53,10.14,6.53,5.3,0,9.52-1.73,9.52-6.64,0-3.65-2.3-5.8-10.48-7.53-8.91-1.88-17.43-5.53-17.43-15.86,0-8.56,5.95-14.47,18.46-14.47,10.49,0,16.9,4.18,17.86,14.4a1.08,1.08,0,0,1-1.07,1.3h-6.65c-.69,0-1-.46-1.11-1.07-.69-3.69-3.76-5.76-9.26-5.76s-8.48,2.11-8.48,6c0,3.15,2,5.57,10.17,7.33,9.18,2,17.82,4.53,17.82,15.86,0,9.91-6.87,15.36-19.74,15.36C353.58,251.63,346.52,247.33,345.71,236.46Z"/></g></svg>